<svg xmlns="http://www.w3.org/2000/svg" xmlns:xlink="http://www.w3.org/1999/xlink" preserveAspectRatio="xMidYMid" width="57" height="67" viewBox="0 0 57 67">
  <defs>
    <style>
      .cls-1 {
        filter: url(#color-overlay-1);
      }

      .cls-2 {
        fill: #000;
        fill-rule: evenodd;
      }
    </style>

    <filter id="color-overlay-1" filterUnits="userSpaceOnUse">
      <feFlood flood-color="#314454"/>
      <feComposite operator="in" in2="SourceGraphic"/>
      <feBlend in2="SourceGraphic" result="solidFill"/>
    </filter>
  </defs>
  <g class="cls-1">
    <path d="M55.656,36.096 C53.513,31.132 51.290,26.260 48.895,21.232 C51.290,16.582 53.579,12.559 55.656,8.824 C56.106,8.014 56.464,5.741 54.095,4.944 C50.734,3.808 47.082,3.442 43.046,3.442 C38.164,3.442 33.307,4.161 28.610,4.853 C23.899,5.545 19.453,6.212 14.967,6.212 C12.228,6.212 9.741,5.950 7.399,5.441 L7.399,3.664 C7.399,2.189 6.194,1.000 4.699,1.000 C3.204,1.000 2.000,2.189 2.000,3.664 L2.000,62.335 C2.000,63.811 3.204,65.000 4.699,65.000 C6.194,65.000 7.399,63.811 7.399,62.335 L7.399,40.849 C9.780,41.294 12.281,41.516 14.967,41.516 C19.850,41.516 24.706,40.798 29.404,40.105 C34.101,39.400 38.547,38.747 43.033,38.747 C46.540,38.747 49.609,39.256 52.534,40.014 C54.982,40.654 56.781,38.055 55.656,36.096 L55.656,36.096 ZM43.033,33.418 C38.150,33.418 33.294,34.136 28.597,34.828 C23.886,35.521 19.440,36.187 14.954,36.187 C12.215,36.187 9.727,35.939 7.385,35.416 L7.385,10.887 C9.767,11.331 12.268,11.554 14.954,11.554 C19.837,11.554 24.693,10.835 29.391,10.143 C34.101,9.451 38.547,8.784 43.033,8.784 C45.229,8.784 47.267,8.941 49.199,9.280 C47.373,12.533 45.494,16.059 43.469,19.991 C43.099,20.723 43.085,21.597 43.443,22.342 C45.309,26.221 47.055,29.996 48.749,33.796 C46.923,33.536 45.031,33.418 43.033,33.418 L43.033,33.418 Z" class="cls-2"/>
    <path d="M-312.344,32.000 C-322.105,48.596 -339.883,59.000 -359.022,59.000 C-378.162,59.000 -395.921,48.596 -405.701,32.000 C-406.105,31.404 -406.105,30.596 -405.701,30.000 C-395.940,13.404 -378.162,3.000 -359.022,3.000 C-339.883,3.000 -322.125,13.404 -312.344,30.000 C-311.941,30.596 -311.941,31.404 -312.344,32.000 ZM-359.022,7.000 C-376.379,7.000 -392.545,16.192 -401.521,31.000 C-392.545,45.807 -376.379,55.000 -359.022,55.000 C-341.667,55.000 -325.500,45.807 -316.524,31.000 C-325.500,16.192 -341.667,7.000 -359.022,7.000 ZM-359.022,49.000 C-368.995,49.000 -376.973,40.999 -376.973,31.000 C-376.973,21.000 -368.995,13.000 -359.022,13.000 C-349.050,13.000 -341.072,21.000 -341.072,31.000 C-341.072,40.999 -349.050,49.000 -359.022,49.000 ZM-359.022,16.999 C-366.790,16.999 -372.984,23.211 -372.984,31.000 C-372.984,38.788 -366.809,44.999 -359.022,44.999 C-351.236,44.999 -345.061,38.788 -345.061,31.000 C-345.061,23.211 -351.256,16.999 -359.022,16.999 ZM-359.022,39.000 C-363.414,39.000 -367.001,35.404 -367.001,31.000 L-363.012,31.000 C-363.012,33.193 -361.209,35.000 -359.022,35.000 C-356.836,35.000 -355.033,33.193 -355.033,31.000 C-355.033,28.807 -356.836,27.000 -359.022,27.000 L-359.022,23.000 C-354.631,23.000 -351.044,26.596 -351.044,31.000 C-351.044,35.404 -354.631,39.000 -359.022,39.000 Z" class="cls-2"/>
    <path d="M-745.999,26.693 L-755.271,36.011 L-757.752,49.641 C-758.632,52.259 -760.896,51.733 -761.708,50.864 L-784.906,27.527 C-785.797,26.772 -786.083,24.245 -783.660,23.593 L-770.111,21.101 L-761.204,12.137 C-754.859,5.757 -746.490,1.000 -737.527,1.000 C-736.669,1.000 -734.771,1.503 -735.023,3.836 C-735.926,12.068 -739.905,20.564 -745.999,26.693 ZM-757.900,15.441 L-767.321,24.920 C-767.653,25.263 -768.087,25.481 -768.556,25.572 L-778.469,27.401 L-761.536,44.404 L-759.730,34.456 C-759.650,33.987 -759.421,33.564 -759.089,33.233 L-749.314,23.399 C-744.615,18.666 -741.403,12.594 -740.099,6.065 C-746.810,7.289 -753.053,10.559 -757.900,15.441 ZM-782.676,36.137 C-781.761,37.040 -781.761,38.526 -782.665,39.441 L-787.009,43.821 C-788.484,45.170 -789.856,44.278 -790.313,43.832 C-791.228,42.929 -791.228,41.442 -790.325,40.527 L-785.980,36.148 C-785.077,35.233 -783.591,35.233 -782.676,36.137 ZM-779.750,42.380 C-778.846,41.465 -777.360,41.465 -776.445,42.369 C-775.530,43.272 -775.530,44.758 -776.433,45.673 L-780.778,50.052 C-782.253,51.401 -783.625,50.509 -784.082,50.064 C-784.997,49.160 -784.997,47.674 -784.094,46.759 L-779.750,42.380 ZM-773.518,48.612 C-772.615,47.697 -771.129,47.697 -770.214,48.600 C-769.299,49.503 -769.299,50.990 -770.203,51.905 L-774.547,56.284 C-776.022,57.633 -777.394,56.741 -777.851,56.295 C-778.766,55.392 -778.766,53.905 -777.863,52.991 L-773.518,48.612 Z" class="cls-2"/>
  </g>
</svg>
