<svg xmlns="http://www.w3.org/2000/svg" xmlns:xlink="http://www.w3.org/1999/xlink" preserveAspectRatio="xMidYMid" width="99" height="58" viewBox="0 0 99 58">
  <defs>
    <style>
      .cls-1 {
        filter: url(#color-overlay-1);
      }

      .cls-2 {
        fill: #000;
        fill-rule: evenodd;
      }
    </style>

    <filter id="color-overlay-1" filterUnits="userSpaceOnUse">
      <feFlood flood-color="#314454"/>
      <feComposite operator="in" in2="SourceGraphic"/>
      <feBlend in2="SourceGraphic" result="solidFill"/>
    </filter>
  </defs>
  <g class="cls-1">
    <path d="M867.656,38.096 C865.513,33.132 863.290,28.260 860.895,23.232 C863.290,18.582 865.579,14.559 867.656,10.824 C868.106,10.014 868.464,7.741 866.095,6.944 C862.734,5.808 859.082,5.442 855.046,5.442 C850.164,5.442 845.307,6.161 840.610,6.853 C835.899,7.545 831.453,8.212 826.967,8.212 C824.228,8.212 821.741,7.950 819.399,7.441 L819.399,5.664 C819.399,4.189 818.194,3.000 816.699,3.000 C815.204,3.000 814.000,4.189 814.000,5.664 L814.000,64.335 C814.000,65.811 815.204,67.000 816.699,67.000 C818.194,67.000 819.399,65.811 819.399,64.335 L819.399,42.849 C821.780,43.294 824.281,43.516 826.967,43.516 C831.850,43.516 836.706,42.798 841.404,42.105 C846.101,41.400 850.547,40.747 855.033,40.747 C858.540,40.747 861.609,41.256 864.534,42.014 C866.982,42.654 868.781,40.055 867.656,38.096 L867.656,38.096 ZM855.033,35.418 C850.150,35.418 845.294,36.136 840.597,36.828 C835.886,37.521 831.440,38.187 826.954,38.187 C824.215,38.187 821.727,37.939 819.385,37.416 L819.385,12.887 C821.767,13.331 824.268,13.554 826.954,13.554 C831.837,13.554 836.693,12.835 841.391,12.143 C846.101,11.451 850.547,10.784 855.033,10.784 C857.229,10.784 859.267,10.941 861.199,11.280 C859.373,14.533 857.494,18.059 855.469,21.991 C855.099,22.723 855.085,23.597 855.443,24.342 C857.309,28.221 859.055,31.996 860.749,35.796 C858.923,35.536 857.031,35.418 855.033,35.418 L855.033,35.418 Z" class="cls-2"/>
    <path d="M95.656,30.000 C85.895,46.596 68.117,57.000 48.978,57.000 C29.838,57.000 12.079,46.596 2.299,30.000 C1.895,29.404 1.895,28.596 2.299,28.000 C12.060,11.404 29.838,1.000 48.978,1.000 C68.117,1.000 85.875,11.404 95.656,28.000 C96.059,28.596 96.059,29.404 95.656,30.000 ZM48.978,5.000 C31.621,5.000 15.455,14.192 6.479,29.000 C15.455,43.807 31.621,53.000 48.978,53.000 C66.333,53.000 82.500,43.807 91.476,29.000 C82.500,14.192 66.333,5.000 48.978,5.000 ZM48.978,47.000 C39.005,47.000 31.027,38.999 31.027,29.000 C31.027,19.000 39.005,11.000 48.978,11.000 C58.950,11.000 66.928,19.000 66.928,29.000 C66.928,38.999 58.950,47.000 48.978,47.000 ZM48.978,14.999 C41.210,14.999 35.016,21.211 35.016,29.000 C35.016,36.788 41.191,42.999 48.978,42.999 C56.764,42.999 62.939,36.788 62.939,29.000 C62.939,21.211 56.744,14.999 48.978,14.999 ZM48.978,37.000 C44.586,37.000 40.999,33.404 40.999,29.000 L44.988,29.000 C44.988,31.193 46.791,33.000 48.978,33.000 C51.164,33.000 52.967,31.193 52.967,29.000 C52.967,26.807 51.164,25.000 48.978,25.000 L48.978,21.000 C53.369,21.000 56.956,24.596 56.956,29.000 C56.956,33.404 53.369,37.000 48.978,37.000 Z" class="cls-2"/>
  </g>
</svg>
